<svg width="168" height="168" viewBox="0 0 168 168" fill="none" xmlns="http://www.w3.org/2000/svg">
<rect width="168" height="168" fill="#52527A"/>
<path d="M84.5 103.25C105.901 103.25 123.25 85.901 123.25 64.5C123.25 43.099 105.901 25.75 84.5 25.75C63.099 25.75 45.75 43.099 45.75 64.5C45.75 85.901 63.099 103.25 84.5 103.25Z" stroke="#DADAE7" stroke-width="2.26829" stroke-linecap="round" stroke-linejoin="round"/>
<path d="M69 72.25C69 72.25 74.8125 80 84.5 80C94.1875 80 100 72.25 100 72.25" stroke="#DADAE7" stroke-width="2.26829" stroke-linecap="round" stroke-linejoin="round"/>
<path d="M72.875 52.875H72.9139" stroke="#DADAE7" stroke-width="2.26829" stroke-linecap="round" stroke-linejoin="round"/>
<path d="M96.125 52.875H96.1639" stroke="#DADAE7" stroke-width="2.26829" stroke-linecap="round" stroke-linejoin="round"/>
<path d="M59.508 133.04H64.532V134.384H61.316V138.672H63.924V139.952H61.316V144.704H64.564V146H59.508V133.04ZM65.8796 136.752H67.4636V137.632C67.773 137.291 68.109 137.035 68.4716 136.864C68.845 136.683 69.2343 136.592 69.6396 136.592C70.429 136.592 70.9303 136.981 71.1436 137.76C71.7836 136.981 72.5516 136.592 73.4476 136.592C73.9276 136.592 74.317 136.768 74.6156 137.12C74.925 137.472 75.0796 138.011 75.0796 138.736V146H73.5116V138.848C73.5116 138.421 73.4423 138.128 73.3036 137.968C73.165 137.797 72.9676 137.712 72.7116 137.712C72.477 137.712 72.2316 137.781 71.9756 137.92C71.7196 138.048 71.485 138.229 71.2716 138.464V138.736V146H69.7036V138.848C69.7036 138.421 69.6343 138.128 69.4956 137.968C69.357 137.797 69.1596 137.712 68.9036 137.712C68.6796 137.712 68.4396 137.781 68.1836 137.92C67.9276 138.048 67.6876 138.229 67.4636 138.464V146H65.8796V136.752ZM83.7229 146.128C83.1682 146.128 82.6455 145.861 82.1549 145.328V146H80.4429V133.04H82.1549V137.488C82.6562 136.912 83.2375 136.624 83.8989 136.624C84.7415 136.624 85.3015 136.987 85.5789 137.712C85.8669 138.427 86.0109 139.221 86.0109 140.096V142.336C86.0109 144.864 85.2482 146.128 83.7229 146.128ZM83.3709 144.784C83.7655 144.784 84.0162 144.587 84.1229 144.192C84.2402 143.787 84.2989 143.168 84.2989 142.336V140.096C84.2989 139.413 84.2349 138.891 84.1069 138.528C83.9789 138.155 83.7122 137.968 83.3069 137.968C82.9335 137.968 82.5495 138.123 82.1549 138.432V144.368C82.5069 144.645 82.9122 144.784 83.3709 144.784ZM87.6151 136.752H89.3271V138.064C89.6471 137.541 89.9725 137.173 90.3031 136.96C90.6445 136.747 91.0018 136.64 91.3751 136.64C91.4711 136.64 91.5618 136.645 91.6471 136.656V138.544C91.3058 138.416 90.9911 138.352 90.7031 138.352C90.4258 138.352 90.1751 138.421 89.9511 138.56C89.7378 138.688 89.5298 138.917 89.3271 139.248V146H87.6151V136.752ZM95.2678 146.128C94.5531 146.128 93.9984 145.995 93.6038 145.728C93.2091 145.451 92.9318 145.045 92.7718 144.512C92.6118 143.979 92.5318 143.285 92.5318 142.432V140.32C92.5318 139.04 92.7291 138.107 93.1238 137.52C93.5291 136.923 94.2438 136.624 95.2678 136.624C96.0144 136.624 96.5744 136.779 96.9478 137.088C97.3318 137.397 97.5824 137.835 97.6998 138.4C97.8278 138.955 97.8918 139.707 97.8918 140.656V141.408H94.2438V143.264C94.2438 143.829 94.3238 144.24 94.4838 144.496C94.6544 144.741 94.9211 144.864 95.2838 144.864C95.6464 144.864 95.8918 144.741 96.0198 144.496C96.1478 144.24 96.2118 143.856 96.2118 143.344V142.784H97.8758V143.136C97.8758 144.107 97.6678 144.848 97.2518 145.36C96.8358 145.872 96.1744 146.128 95.2678 146.128ZM96.2118 140.48V139.648C96.2118 139.019 96.1478 138.571 96.0198 138.304C95.9024 138.027 95.6464 137.888 95.2518 137.888C94.9744 137.888 94.7611 137.952 94.6118 138.08C94.4731 138.208 94.3771 138.421 94.3238 138.72C94.2704 139.008 94.2438 139.429 94.2438 139.984V140.48H96.2118ZM98.8181 136.752H100.546L101.682 144.192L102.834 136.752H104.498L102.738 146H100.642L98.8181 136.752ZM108.158 146.128C107.444 146.128 106.889 145.995 106.494 145.728C106.1 145.451 105.822 145.045 105.662 144.512C105.502 143.979 105.422 143.285 105.422 142.432V140.32C105.422 139.04 105.62 138.107 106.014 137.52C106.42 136.923 107.134 136.624 108.158 136.624C108.905 136.624 109.465 136.779 109.838 137.088C110.222 137.397 110.473 137.835 110.59 138.4C110.718 138.955 110.782 139.707 110.782 140.656V141.408H107.134V143.264C107.134 143.829 107.214 144.24 107.374 144.496C107.545 144.741 107.812 144.864 108.174 144.864C108.537 144.864 108.782 144.741 108.91 144.496C109.038 144.24 109.102 143.856 109.102 143.344V142.784H110.766V143.136C110.766 144.107 110.558 144.848 110.142 145.36C109.726 145.872 109.065 146.128 108.158 146.128ZM109.102 140.48V139.648C109.102 139.019 109.038 138.571 108.91 138.304C108.793 138.027 108.537 137.888 108.142 137.888C107.865 137.888 107.652 137.952 107.502 138.08C107.364 138.208 107.268 138.421 107.214 138.72C107.161 139.008 107.134 139.429 107.134 139.984V140.48H109.102Z" fill="#DADAE7"/>
</svg>
